<?xml version="1.0" encoding="UTF-8" standalone="no"?>
<!DOCTYPE svg PUBLIC "-//W3C//DTD SVG 1.0//EN" "http://www.w3.org/TR/SVG/DTD/svg10.dtd">
<svg width="1786" height="977.0" xmlns="http://www.w3.org/2000/svg"><rect x="0" y="0" width="1786" height="977.0" style="fill:#ffffff;"/><g style="stroke:#606060; stroke-opacity:0.15; fill:none;"><path d="M671,536 Q701,607 731,583"/>
<path d="M671,536 Q492,645 314,454"/>
<path d="M671,536 Q688,606 706,593"/>
<path d="M671,536 Q531,643 391,458"/>
<path d="M671,536 Q500,710 330,549"/>
<path d="M671,536 Q897,697 1124,413"/>
<path d="M671,536 Q697,552 724,481"/>
<path d="M821,407 Q774,578 728,545"/>
<path d="M821,407 Q563,639 306,395"/>
<path d="M821,407 Q767,487 714,444"/>
<path d="M578,500 Q646,560 714,444"/>
<path d="M869,618 Q795,662 722,521"/>
<path d="M869,618 Q770,699 671,536"/>
<path d="M869,618 Q1085,773 1302,365"/>
<path d="M869,618 Q599,884 330,549"/>
<path d="M869,618 Q787,678 706,593"/>
<path d="M869,618 Q796,689 724,481"/>
<path d="M762,500 Q783,517 804,498"/>
<path d="M762,500 Q777,508 792,242"/>
<path d="M762,500 Q860,679 958,594"/>
<path d="M762,500 Q661,646 561,568"/>
<path d="M762,500 Q738,522 714,444"/>
<path d="M670,633 Q1132,935 1595,569"/>
<path d="M670,633 Q1100,940 1530,503"/>
<path d="M670,633 Q537,711 404,334"/>
<path d="M670,633 Q697,654 724,481"/>
<path d="M465,552 Q508,591 552,441"/>
<path d="M776,487 Q844,553 912,467"/>
<path d="M776,487 Q778,489 781,463"/>
<path d="M776,487 Q1166,724 1556,440"/>
<path d="M776,487 Q950,623 1124,413"/>
<path d="M776,487 Q896,571 1017,505"/>
<path d="M776,487 Q745,507 714,444"/>
<path d="M731,583 Q1130,816 1530,503"/>
<path d="M731,583 Q727,585 724,481"/>
<path d="M1323,486 Q965,772 608,422"/>
<path d="M1323,486 Q1223,554 1124,413"/>
<path d="M1323,486 Q1103,665 883,316"/>
<path d="M1454,432 Q1378,471 1302,413"/>
<path d="M1454,432 Q1004,835 554,556"/>
<path d="M1454,432 Q884,782 314,454"/>
<path d="M1454,432 Q880,936 306,395"/>
<path d="M1454,432 Q1492,539 1530,503"/>
<path d="M1454,432 Q1137,831 820,521"/>
<path d="M451,598 Q647,731 844,420"/>
<path d="M1025,460 Q1074,503 1124,413"/>
<path d="M1025,460 Q922,548 820,481"/>
<path d="M813,591 Q968,683 1124,413"/>
<path d="M432,372 Q982,718 1533,420"/>
<path d="M432,372 Q575,602 719,463"/>
<path d="M432,372 Q924,837 1417,491"/>
<path d="M595,370 Q978,838 1362,533"/>
<path d="M975,473 Q1134,605 1294,498"/>
<path d="M975,473 Q1049,517 1124,413"/>
<path d="M925,523 Q1024,584 1124,413"/>
<path d="M925,523 Q1042,606 1160,275"/>
<path d="M925,523 Q819,594 714,444"/>
<path d="M446,778 Q604,858 762,500"/>
<path d="M1098,552 Q951,653 804,498"/>
<path d="M1098,552 Q792,711 487,476"/>
<path d="M707,381 Q717,553 728,545"/>
<path d="M707,381 Q715,489 724,481"/>
<path d="M707,381 Q759,570 811,531"/>
<path d="M963,323 Q892,439 821,378"/>
<path d="M963,323 Q972,367 982,361"/>
<path d="M963,323 Q770,614 578,500"/>
<path d="M963,323 Q1048,577 1133,507"/>
<path d="M963,323 Q1036,415 1109,361"/>
<path d="M963,323 Q869,540 776,487"/>
<path d="M266,600 Q409,685 552,441"/>
<path d="M949,425 Q1036,482 1124,413"/>
<path d="M949,425 Q926,442 903,376"/>
<path d="M949,425 Q775,591 601,409"/>
<path d="M656,392 Q611,668 566,642"/>
<path d="M656,392 Q628,433 601,409"/>
<path d="M656,392 Q579,589 502,521"/>
<path d="M656,392 Q890,547 1124,413"/>
<path d="M656,392 Q975,730 1294,498"/>
<path d="M656,392 Q608,601 561,568"/>
<path d="M656,392 Q685,471 714,444"/>
<path d="M1289,378 Q1152,456 1016,323"/>
<path d="M1289,378 Q1199,445 1109,361"/>
<path d="M272,704 Q282,714 293,664"/>
<path d="M819,471 Q771,517 724,481"/>
<path d="M1016,524 Q1131,636 1247,329"/>
<path d="M1016,524 Q918,593 820,481"/>
<path d="M1016,524 Q847,684 679,410"/>
<path d="M1016,524 Q1070,575 1124,413"/>
<path d="M1016,524 Q924,595 833,357"/>
<path d="M820,481 Q615,678 410,433"/>
<path d="M820,481 Q949,574 1078,506"/>
<path d="M820,481 Q972,591 1124,413"/>
<path d="M820,481 Q772,526 724,481"/>
<path d="M252,611 Q341,662 431,492"/>
<path d="M252,611 Q485,798 719,463"/>
<path d="M252,611 Q328,671 404,413"/>
<path d="M252,611 Q342,678 432,372"/>
<path d="M278,621 Q561,871 844,420"/>
<path d="M278,621 Q843,1078 1409,462"/>
<path d="M278,621 Q990,1050 1702,410"/>
<path d="M1097,322 Q829,745 561,568"/>
<path d="M1409,462 Q909,854 410,433"/>
<path d="M640,462 Q682,508 724,481"/>
<path d="M640,462 Q677,497 714,444"/>
<path d="M489,710 Q742,842 995,608"/>
<path d="M489,710 Q799,925 1109,361"/>
<path d="M932,578 Q770,667 608,422"/>
<path d="M932,578 Q732,744 532,459"/>
<path d="M932,578 Q907,591 883,316"/>
<path d="M932,578 Q910,592 888,547"/>
<path d="M932,578 Q701,746 471,413"/>
<path d="M932,578 Q575,854 218,536"/>
<path d="M319,517 Q714,864 1109,361"/>
<path d="M319,517 Q403,569 487,476"/>
<path d="M319,517 Q268,563 218,536"/>
<path d="M779,414 Q800,432 821,378"/>
<path d="M465,423 Q654,564 844,420"/>
<path d="M465,423 Q592,529 719,463"/>
<path d="M465,423 Q745,609 1025,460"/>
<path d="M1037,350 Q920,573 804,498"/>
<path d="M1037,350 Q671,743 306,395"/>
<path d="M1037,350 Q1080,436 1124,413"/>
<path d="M1037,350 Q1073,382 1109,361"/>
<path d="M617,432 Q719,516 821,407"/>
<path d="M617,432 Q672,598 728,545"/>
<path d="M617,432 Q870,645 1124,413"/>
<path d="M617,432 Q670,523 724,481"/>
<path d="M617,432 Q461,574 306,395"/>
<path d="M617,432 Q714,600 811,531"/>
<path d="M617,432 Q667,479 717,360"/>
<path d="M642,619 Q631,626 620,451"/>
<path d="M642,619 Q598,654 554,556"/>
<path d="M642,619 Q617,634 593,474"/>
<path d="M650,410 Q725,463 801,368"/>
<path d="M650,410 Q575,686 501,631"/>
<path d="M650,410 Q687,509 724,481"/>
<path d="M1609,504 Q1366,739 1124,413"/>
<path d="M1609,504 Q1569,537 1530,503"/>
<path d="M737,404 Q645,642 554,556"/>
<path d="M737,404 Q573,554 410,433"/>
<path d="M737,404 Q521,587 306,395"/>
<path d="M737,404 Q1133,846 1530,503"/>
<path d="M737,404 Q725,451 714,444"/>
<path d="M1305,608 Q896,1014 487,476"/>
<path d="M1163,520 Q1143,533 1124,413"/>
<path d="M1163,520 Q921,685 679,410"/>
<path d="M1190,314 Q1192,506 1194,505"/>
<path d="M1190,314 Q1030,636 871,508"/>
<path d="M1190,314 Q1134,545 1078,506"/>
<path d="M1190,314 Q895,621 601,409"/>
<path d="M1190,314 Q1157,438 1124,413"/>
<path d="M1190,314 Q1368,623 1547,520"/>
<path d="M679,410 Q650,436 621,384"/>
<path d="M679,410 Q901,578 1124,413"/>
<path d="M679,410 Q701,494 724,481"/>
<path d="M679,410 Q696,454 714,444"/>
<path d="M679,410 Q767,573 855,494"/>
<path d="M471,413 Q679,708 888,547"/>
<path d="M471,413 Q1086,770 1702,410"/>
<path d="M471,413 Q451,504 431,492"/>
<path d="M471,413 Q451,548 432,532"/>
<path d="M471,413 Q790,684 1109,361"/>
<path d="M1090,517 Q860,718 631,564"/>
<path d="M1090,517 Q1107,526 1124,413"/>
<path d="M1090,517 Q1226,649 1362,533"/>
<path d="M1090,517 Q1140,555 1190,314"/>
<path d="M596,582 Q636,607 676,575"/>
<path d="M596,582 Q637,615 679,410"/>
<path d="M956,333 Q1075,615 1194,505"/>
<path d="M956,333 Q1261,605 1566,451"/>
<path d="M956,333 Q913,549 871,508"/>
<path d="M956,333 Q920,384 884,355"/>
<path d="M956,333 Q1021,596 1086,534"/>
<path d="M956,333 Q1073,393 1190,314"/>
<path d="M956,333 Q721,598 487,476"/>
<path d="M533,399 Q570,453 608,422"/>
<path d="M533,399 Q1087,938 1642,516"/>
<path d="M533,399 Q450,468 368,394"/>
<path d="M533,399 Q776,691 1019,479"/>
<path d="M533,399 Q419,510 306,395"/>
<path d="M533,399 Q791,559 1049,403"/>
<path d="M533,399 Q828,664 1124,413"/>
<path d="M533,399 Q499,456 465,423"/>
<path d="M533,399 Q623,512 714,444"/>
<path d="M533,399 Q511,728 489,710"/>
<path d="M533,399 Q785,583 1037,350"/>
<path d="M533,399 Q439,455 345,352"/>
<path d="M533,399 Q577,427 621,384"/>
<path d="M533,399 Q665,660 797,568"/>
<path d="M533,399 Q582,591 631,564"/>
<path d="M533,399 Q564,417 595,370"/>
<path d="M533,399 Q821,624 1109,361"/>
<path d="M533,399 Q547,577 561,568"/>
<path d="M1048,598 Q1000,635 953,605"/>
<path d="M719,463 Q635,543 552,441"/>
<path d="M719,463 Q721,482 724,481"/>
<path d="M719,463 Q1160,800 1602,481"/>
<path d="M719,463 Q684,491 650,410"/>
<path d="M1204,370 Q1156,407 1109,361"/>
<path d="M1109,453 Q1116,459 1124,413"/>
<path d="M1109,453 Q1109,453 1109,361"/>
<path d="M1031,426 Q1077,458 1124,413"/>
<path d="M1031,426 Q1070,459 1109,361"/>
<path d="M1423,510 Q1476,543 1530,503"/>
<path d="M912,467 Q1018,533 1124,413"/>
<path d="M912,467 Q609,639 306,395"/>
<path d="M1106,566 Q706,916 306,395"/>
<path d="M1106,566 Q687,963 269,131"/>
<path d="M1302,413 Q883,925 465,552"/>
<path d="M1302,413 Q1452,619 1602,481"/>
<path d="M1302,413 Q1448,715 1595,569"/>
<path d="M1302,413 Q1423,656 1545,542"/>
<path d="M598,395 Q543,743 489,710"/>
<path d="M598,395 Q838,647 1078,506"/>
<path d="M598,395 Q624,445 651,422"/>
<path d="M650,343 Q609,405 569,383"/>
<path d="M650,343 Q1129,742 1608,491"/>
<path d="M650,343 Q478,547 306,395"/>
<path d="M650,343 Q769,699 888,584"/>
<path d="M650,343 Q1135,994 1621,529"/>
<path d="M650,343 Q575,689 501,631"/>
<path d="M650,343 Q887,626 1124,413"/>
<path d="M650,343 Q747,487 844,420"/>
<path d="M650,343 Q684,492 719,463"/>
<path d="M650,343 Q687,516 724,481"/>
<path d="M1013,493 Q1068,532 1124,413"/>
<path d="M1013,493 Q1055,578 1098,552"/>
<path d="M306,395 Q385,593 465,552"/>
<path d="M306,395 Q310,456 314,454"/>
<path d="M306,395 Q286,619 266,600"/>
<path d="M306,395 Q857,1011 1409,462"/>
<path d="M306,395 Q650,888 995,608"/>
<path d="M306,395 Q546,624 786,358"/>
<path d="M306,395 Q954,1089 1602,481"/>
<path d="M306,395 Q925,931 1545,542"/>
<path d="M769,388 Q1035,625 1302,413"/>
<path d="M769,388 Q541,603 314,454"/>
<path d="M769,388 Q1182,939 1595,569"/>
<path d="M769,388 Q1149,843 1530,503"/>
<path d="M769,388 Q746,500 724,481"/>
<path d="M1277,453 Q942,779 608,422"/>
<path d="M1277,453 Q1282,522 1287,519"/>
<path d="M1277,453 Q1459,691 1642,516"/>
<path d="M1277,453 Q1082,687 888,584"/>
<path d="M1277,453 Q1177,583 1078,506"/>
<path d="M1277,453 Q1163,513 1049,403"/>
<path d="M1277,453 Q1200,507 1124,413"/>
<path d="M1277,453 Q1319,568 1362,533"/>
<path d="M1277,453 Q1233,480 1190,314"/>
<path d="M1277,453 Q1086,773 896,637"/>
<path d="M1277,453 Q1183,656 1090,582"/>
<path d="M1277,453 Q1045,724 813,591"/>
<path d="M1277,453 Q834,897 391,458"/>
<path d="M1277,453 Q842,1021 408,653"/>
<path d="M1277,453 Q1192,526 1107,350"/>
<path d="M1277,453 Q954,819 631,564"/>
<path d="M1277,453 Q889,833 502,521"/>
<path d="M1277,453 Q903,1052 529,687"/>
<path d="M814,339 Q849,388 884,355"/>
<path d="M814,339 Q925,430 1037,364"/>
<path d="M932,506 Q1028,571 1124,413"/>
<path d="M932,506 Q1118,791 1305,608"/>
<path d="M932,506 Q984,541 1037,364"/>
<path d="M932,506 Q1020,578 1109,361"/>
<path d="M958,594 Q1041,670 1124,413"/>
<path d="M958,594 Q722,726 487,476"/>
<path d="M514,429 Q503,578 493,570"/>
<path d="M514,429 Q439,661 364,598"/>
<path d="M514,429 Q582,490 650,410"/>
<path d="M514,429 Q616,519 719,463"/>
<path d="M514,429 Q1067,1005 1621,529"/>
<path d="M1167,303 Q893,713 620,451"/>
<path d="M1167,303 Q1145,425 1124,413"/>
<path d="M1167,303 Q1384,668 1602,481"/>
<path d="M358,559 Q325,692 293,664"/>
<path d="M358,559 Q383,673 408,653"/>
<path d="M981,457 Q1045,490 1109,361"/>
<path d="M1239,268 Q1181,463 1124,413"/>
<path d="M1239,268 Q1127,398 1016,323"/>
<path d="M1239,268 Q1208,510 1178,494"/>
<path d="M1239,268 Q1174,395 1109,361"/>
<path d="M1239,268 Q1110,559 981,457"/>
<path d="M561,568 Q389,665 218,536"/>
<path d="M561,568 Q482,644 404,334"/>
<path d="M366,471 Q984,1025 1602,481"/>
<path d="M366,471 Q467,538 569,383"/>
<path d="M366,471 Q567,657 769,388"/>
<path d="M366,471 Q398,514 431,492"/>
<path d="M366,471 Q948,892 1530,503"/>
<path d="M366,471 Q541,577 717,360"/>
<path d="M366,471 Q593,637 821,407"/>
<path d="M366,471 Q834,796 1302,413"/>
<path d="M366,471 Q745,670 1124,413"/>
<path d="M366,471 Q887,840 1409,462"/>
<path d="M366,471 Q588,736 811,531"/>
<path d="M1086,534 Q1105,547 1124,413"/>
<path d="M1086,534 Q978,602 871,508"/>
<path d="M1300,341 Q1050,593 801,368"/>
<path d="M1300,341 Q1212,469 1124,413"/>
<path d="M1300,341 Q950,748 601,409"/>
<path d="M1595,569 Q954,1033 314,454"/>
<path d="M601,409 Q855,630 1109,361"/>
<path d="M1247,329 Q1185,468 1124,413"/>
<path d="M1247,329 Q1040,557 833,357"/>
<path d="M1074,388 Q1028,421 982,361"/>
<path d="M1017,505 Q812,624 608,422"/>
<path d="M1017,505 Q901,567 786,358"/>
<path d="M1017,505 Q1294,786 1571,590"/>
<path d="M1017,505 Q1070,532 1124,413"/>
<path d="M1017,505 Q692,795 368,394"/>
<path d="M723,648 Q721,649 719,463"/>
<path d="M723,648 Q532,758 341,572"/>
<path d="M1287,519 Q1045,654 804,498"/>
<path d="M1287,519 Q1039,646 792,242"/>
<path d="M1287,519 Q831,888 376,438"/>
<path d="M1287,519 Q1426,608 1566,451"/>
<path d="M1287,519 Q845,871 404,334"/>
<path d="M640,705 Q882,914 1124,413"/>
<path d="M640,705 Q597,740 554,556"/>
<path d="M640,705 Q473,800 306,395"/>
<path d="M640,705 Q1110,1103 1580,468"/>
<path d="M621,384 Q865,537 1109,361"/>
<path d="M1480,442 Q983,809 487,476"/>
<path d="M786,358 Q1176,747 1566,451"/>
<path d="M786,358 Q636,577 487,476"/>
<path d="M786,358 Q947,505 1109,361"/>
<path d="M786,358 Q750,476 714,444"/>
<path d="M1210,380 Q1388,576 1566,451"/>
<path d="M1210,380 Q1167,438 1124,413"/>
<path d="M1210,380 Q1192,389 1175,380"/>
<path d="M1210,380 Q1071,612 932,506"/>
<path d="M1210,380 Q848,747 487,476"/>
<path d="M1228,319 Q1176,459 1124,413"/>
<path d="M1228,319 Q1201,393 1175,380"/>
<path d="M1037,364 Q1080,451 1124,413"/>
<path d="M1037,364 Q1162,623 1287,519"/>
<path d="M1037,364 Q691,574 345,352"/>
<path d="M1037,364 Q1073,398 1109,361"/>
<path d="M1037,364 Q799,791 561,568"/>
<path d="M1037,364 Q762,629 487,476"/>
<path d="M1221,288 Q1172,457 1124,413"/>
<path d="M1221,288 Q948,739 676,575"/>
<path d="M1221,288 Q1038,648 855,494"/>
<path d="M437,360 Q966,1017 1495,607"/>
<path d="M1351,422 Q1237,520 1124,413"/>
<path d="M1351,422 Q1117,605 884,355"/>
<path d="M1351,422 Q919,771 487,476"/>
<path d="M529,687 Q826,911 1124,413"/>
<path d="M1178,494 Q1143,513 1109,361"/>
<path d="M984,398 Q1275,614 1566,451"/>
<path d="M984,398 Q807,658 631,564"/>
<path d="M984,398 Q1054,462 1124,413"/>
<path d="M984,398 Q817,547 651,422"/>
<path d="M984,398 Q957,511 930,487"/>
<path d="M1188,351 Q1148,393 1109,361"/>
<path d="M364,598 Q833,1043 1302,413"/>
<path d="M364,598 Q947,1003 1530,503"/>
<path d="M1274,389 Q802,848 330,549"/>
<path d="M1274,389 Q1199,461 1124,413"/>
<path d="M1158,540 Q886,798 614,511"/>
<path d="M1158,540 Q1141,548 1124,413"/>
<path d="M717,360 Q720,482 724,481"/>
<path d="M1530,503 Q1562,595 1595,569"/>
<path d="M1530,503 Q1123,882 717,360"/>
<path d="M1530,503 Q1327,655 1124,413"/>
<path d="M1530,503 Q1537,549 1545,542"/>
<path d="M1530,503 Q1616,563 1702,410"/>
<path d="M1530,503 Q997,980 465,552"/>
<path d="M1530,503 Q1069,815 608,422"/>
<path d="M1530,503 Q922,968 314,454"/>
<path d="M1530,503 Q918,1010 306,395"/>
<path d="M1530,503 Q970,966 410,433"/>
<path d="M1530,503 Q1041,907 552,441"/>
<path d="M1530,503 Q1192,687 855,494"/>
<path d="M1530,503 Q1122,718 714,444"/>
<path d="M1530,503 Q1566,525 1602,481"/>
<path d="M1319,508 Q1221,570 1124,413"/>
<path d="M1319,508 Q903,915 487,476"/>
<path d="M660,645 Q626,673 593,474"/>
<path d="M1019,479 Q1071,530 1124,413"/>
<path d="M1019,479 Q1153,596 1287,519"/>
<path d="M820,521 Q803,531 786,358"/>
<path d="M820,521 Q1157,884 1495,607"/>
<path d="M820,521 Q1175,848 1530,503"/>
<path d="M820,521 Q661,673 502,521"/>
<path d="M820,521 Q763,567 707,381"/>
<path d="M820,521 Q686,625 552,441"/>
<path d="M820,521 Q772,549 724,481"/>
<path d="M1642,516 Q1256,783 871,508"/>
<path d="M1642,516 Q1121,978 601,409"/>
<path d="M1642,516 Q1374,737 1107,350"/>
<path d="M1642,516 Q1586,548 1530,503"/>
<path d="M1642,516 Q1383,746 1124,413"/>
<path d="M1642,516 Q1279,860 917,457"/>
<path d="M1642,516 Q1101,990 561,568"/>
<path d="M896,637 Q752,722 608,422"/>
<path d="M896,637 Q847,671 799,509"/>
<path d="M896,637 Q787,709 679,410"/>
<path d="M896,637 Q892,639 888,584"/>
<path d="M896,637 Q843,687 790,453"/>
<path d="M896,637 Q858,656 820,521"/>
<path d="M896,637 Q714,738 533,399"/>
<path d="M896,637 Q1010,738 1124,413"/>
<path d="M896,637 Q773,742 651,422"/>
<path d="M896,637 Q631,804 367,512"/>
<path d="M896,637 Q692,893 489,710"/>
<path d="M896,637 Q858,658 821,378"/>
<path d="M896,637 Q924,652 953,605"/>
<path d="M896,637 Q868,664 841,610"/>
<path d="M896,637 Q966,700 1037,350"/>
<path d="M896,637 Q776,725 656,392"/>
<path d="M896,637 Q935,671 975,642"/>
<path d="M896,637 Q892,640 888,547"/>
<path d="M896,637 Q1002,741 1109,361"/>
<path d="M896,637 Q681,780 466,445"/>
<path d="M651,422 Q727,548 804,498"/>
<path d="M651,422 Q478,543 306,395"/>
<path d="M651,422 Q769,607 888,547"/>
<path d="M651,422 Q858,638 1066,443"/>
<path d="M651,422 Q880,547 1109,361"/>
<path d="M651,422 Q1001,725 1351,422"/>
<path d="M651,422 Q682,465 714,444"/>
<path d="M344,631 Q376,669 408,653"/>
<path d="M344,631 Q599,883 855,494"/>
<path d="M821,378 Q685,460 549,338"/>
<path d="M821,378 Q677,498 533,399"/>
<path d="M821,378 Q820,521 820,521"/>
<path d="M821,378 Q798,503 776,487"/>
<path d="M821,378 Q799,399 777,303"/>
<path d="M821,378 Q972,561 1124,413"/>
<path d="M821,378 Q594,700 367,512"/>
<path d="M821,378 Q885,468 949,425"/>
<path d="M821,378 Q794,530 768,513"/>
<path d="M821,378 Q1012,542 1204,370"/>
<path d="M821,378 Q654,620 487,476"/>
<path d="M821,378 Q767,476 714,444"/>
<path d="M821,378 Q929,459 1037,350"/>
<path d="M821,378 Q845,456 869,435"/>
<path d="M821,378 Q738,472 656,392"/>
<path d="M821,378 Q977,635 1133,507"/>
<path d="M821,378 Q965,488 1109,361"/>
<path d="M608,422 Q822,553 1037,350"/>
<path d="M608,422 Q700,481 792,242"/>
<path d="M608,422 Q666,533 724,481"/>
<path d="M608,422 Q661,491 714,444"/>
<path d="M493,570 Q897,883 1302,413"/>
<path d="M493,570 Q1011,932 1530,503"/>
<path d="M676,575 Q607,628 539,516"/>
<path d="M676,575 Q748,613 820,481"/>
<path d="M676,575 Q543,691 410,433"/>
<path d="M676,575 Q697,588 718,508"/>
<path d="M676,575 Q1116,863 1556,440"/>
<path d="M676,575 Q900,697 1124,413"/>
<path d="M676,575 Q695,585 714,444"/>
<path d="M676,575 Q571,627 466,445"/>
<path d="M1044,413 Q1084,440 1124,413"/>
<path d="M431,492 Q348,656 266,600"/>
<path d="M431,492 Q980,985 1530,503"/>
<path d="M431,492 Q403,515 376,438"/>
<path d="M431,492 Q777,759 1124,413"/>
<path d="M431,492 Q375,563 319,517"/>
<path d="M431,492 Q472,515 514,429"/>
<path d="M431,492 Q550,726 670,633"/>
<path d="M431,492 Q637,685 844,420"/>
<path d="M431,492 Q770,753 1109,361"/>
<path d="M431,492 Q417,504 404,413"/>
<path d="M431,492 Q448,567 465,552"/>
<path d="M431,492 Q512,534 593,474"/>
<path d="M431,492 Q420,501 410,433"/>
<path d="M431,492 Q372,550 314,454"/>
<path d="M431,492 Q368,539 306,395"/>
<path d="M431,492 Q425,566 420,563"/>
<path d="M431,492 Q616,639 801,368"/>
<path d="M431,492 Q481,517 532,459"/>
<path d="M431,492 Q491,535 552,441"/>
<path d="M431,492 Q572,628 714,444"/>
<path d="M431,492 Q643,652 855,494"/>
<path d="M431,492 Q462,590 493,570"/>
<path d="M431,492 Q411,502 391,458"/>
<path d="M431,492 Q324,633 218,536"/>
<path d="M431,492 Q397,627 364,598"/>
<path d="M431,492 Q575,611 719,463"/>
<path d="M892,680 Q776,774 660,645"/>
<path d="M884,355 Q630,592 376,438"/>
<path d="M884,355 Q722,680 561,568"/>
<path d="M293,664 Q350,719 408,653"/>
<path d="M341,572 Q820,996 1300,341"/>
<path d="M341,572 Q380,598 420,563"/>
<path d="M673,480 Q693,491 714,444"/>
<path d="M491,584 Q807,850 1124,413"/>
<path d="M374,691 Q708,998 1042,375"/>
<path d="M374,691 Q391,699 408,653"/>
<path d="M391,458 Q499,520 608,422"/>
<path d="M391,458 Q1016,910 1642,516"/>
<path d="M391,458 Q960,919 1530,503"/>
<path d="M391,458 Q846,799 1302,413"/>
<path d="M391,458 Q472,611 554,556"/>
<path d="M391,458 Q693,827 995,608"/>
<path d="M1264,482 Q1229,536 1194,505"/>
<path d="M1264,482 Q1307,515 1351,422"/>
<path d="M1264,482 Q1275,529 1287,519"/>
<path d="M1264,482 Q1276,488 1289,378"/>
<path d="M1264,482 Q1304,519 1345,442"/>
<path d="M1264,482 Q898,769 532,459"/>
<path d="M1264,482 Q1194,546 1124,413"/>
<path d="M1264,482 Q1291,529 1319,508"/>
<path d="M1264,482 Q1284,621 1305,608"/>
<path d="M1264,482 Q1186,537 1109,361"/>
<path d="M1264,482 Q791,788 319,517"/>
<path d="M432,532 Q431,532 431,492"/>
<path d="M432,532 Q778,817 1124,413"/>
<path d="M432,532 Q770,740 1109,361"/>
<path d="M722,521 Q1162,859 1602,481"/>
<path d="M722,521 Q518,649 314,454"/>
<path d="M722,521 Q556,634 391,458"/>
<path d="M722,521 Q725,547 728,545"/>
<path d="M722,521 Q526,677 330,549"/>
<path d="M722,521 Q638,626 554,556"/>
<path d="M722,521 Q915,620 1109,361"/>
<path d="M722,521 Q723,521 724,481"/>
<path d="M1362,533 Q1139,653 917,457"/>
<path d="M1362,533 Q1502,645 1642,516"/>
<path d="M448,508 Q498,551 549,338"/>
<path d="M781,463 Q656,573 532,459"/>
<path d="M781,463 Q752,504 724,481"/>
<path d="M781,463 Q945,576 1109,361"/>
<path d="M781,463 Q747,495 714,444"/>
<path d="M728,545 Q766,572 804,498"/>
<path d="M728,545 Q1165,933 1602,481"/>
<path d="M728,545 Q745,618 763,605"/>
<path d="M728,545 Q769,576 811,531"/>
<path d="M728,545 Q918,674 1109,361"/>
<path d="M728,545 Q726,546 724,481"/>
<path d="M768,513 Q746,533 724,481"/>
<path d="M844,420 Q831,480 819,471"/>
<path d="M844,420 Q784,538 724,481"/>
<path d="M844,420 Q747,475 650,410"/>
<path d="M844,420 Q1223,749 1602,481"/>
<path d="M844,420 Q672,771 501,631"/>
<path d="M844,420 Q781,509 719,463"/>
<path d="M844,420 Q587,789 330,549"/>
<path d="M1004,551 Q890,614 777,303"/>
<path d="M1004,551 Q1064,596 1124,413"/>
<path d="M1004,551 Q1023,569 1042,375"/>
<path d="M1004,551 Q802,725 601,409"/>
<path d="M1109,361 Q1079,382 1049,335"/>
<path d="M1109,361 Q1062,388 1016,323"/>
<path d="M1109,361 Q798,753 487,476"/>
<path d="M539,516 Q546,562 554,556"/>
<path d="M539,516 Q526,525 514,429"/>
<path d="M539,516 Q1036,931 1533,420"/>
<path d="M539,516 Q691,665 844,420"/>
<path d="M539,516 Q402,677 266,600"/>
<path d="M1547,520 Q1038,946 529,687"/>
<path d="M1547,520 Q1594,544 1642,516"/>
<path d="M752,209 Q938,552 1124,413"/>
<path d="M752,209 Q1048,669 1345,442"/>
<path d="M752,209 Q766,474 781,463"/>
<path d="M752,209 Q772,261 792,242"/>
<path d="M631,564 Q834,677 1037,350"/>
<path d="M631,564 Q592,601 554,556"/>
<path d="M1175,380 Q1370,576 1566,451"/>
<path d="M347,582 Q735,888 1124,413"/>
<path d="M797,568 Q714,616 631,564"/>
<path d="M797,568 Q917,684 1037,350"/>
<path d="M797,568 Q551,726 306,395"/>
<path d="M1504,480 Q1072,1011 640,705"/>
<path d="M1504,480 Q1273,603 1042,375"/>
<path d="M1504,480 Q1151,686 799,509"/>
<path d="M1504,480 Q1384,544 1264,482"/>
<path d="M1504,480 Q1162,739 820,481"/>
<path d="M1504,480 Q957,922 410,433"/>
<path d="M1504,480 Q936,883 368,394"/>
<path d="M1504,480 Q1261,663 1019,479"/>
<path d="M1504,480 Q1291,629 1078,506"/>
<path d="M1504,480 Q1517,512 1530,503"/>
<path d="M1504,480 Q1535,505 1566,451"/>
<path d="M1504,480 Q997,935 491,584"/>
<path d="M1504,480 Q1314,594 1124,413"/>
<path d="M1504,480 Q1090,966 676,575"/>
<path d="M1504,480 Q1258,707 1013,493"/>
<path d="M1504,480 Q1411,566 1319,508"/>
<path d="M1504,480 Q1193,738 883,316"/>
<path d="M1504,480 Q1059,784 614,511"/>
<path d="M1504,480 Q1133,817 762,500"/>
<path d="M1504,480 Q1456,512 1409,462"/>
<path d="M1504,480 Q1359,590 1215,458"/>
<path d="M1504,480 Q1347,610 1190,314"/>
<path d="M1504,480 Q995,859 487,476"/>
<path d="M1504,480 Q1349,655 1194,505"/>
<path d="M1504,480 Q1187,797 871,508"/>
<path d="M1504,480 Q1297,787 1090,582"/>
<path d="M1504,480 Q1246,680 989,251"/>
<path d="M1504,480 Q1492,487 1480,442"/>
<path d="M1504,480 Q1067,900 631,564"/>
<path d="M1504,480 Q1069,963 635,548"/>
<path d="M1504,480 Q1306,616 1109,361"/>
<path d="M1504,480 Q985,829 466,445"/>
<path d="M1691,453 Q1050,982 410,433"/>
<path d="M1691,453 Q1355,694 1019,479"/>
<path d="M1691,453 Q1289,871 888,584"/>
<path d="M1691,453 Q1384,731 1078,506"/>
<path d="M1691,453 Q978,1144 266,600"/>
<path d="M1691,453 Q1240,845 790,453"/>
<path d="M1691,453 Q1146,838 601,409"/>
<path d="M1691,453 Q1610,562 1530,503"/>
<path d="M1691,453 Q1407,731 1124,413"/>
<path d="M1691,453 Q1317,713 943,415"/>
<path d="M1691,453 Q1287,697 883,316"/>
<path d="M1691,453 Q1597,564 1504,480"/>
<path d="M1691,453 Q1453,587 1215,458"/>
<path d="M1691,453 Q1649,516 1608,491"/>
<path d="M1691,453 Q1340,780 989,251"/>
<path d="M1691,453 Q1635,506 1580,468"/>
<path d="M1691,453 Q1161,950 631,564"/>
<path d="M1691,453 Q1289,826 888,547"/>
<path d="M1691,453 Q1311,884 932,578"/>
<path d="M676,609 Q648,624 620,451"/>
<path d="M676,609 Q615,655 554,556"/>
<path d="M676,609 Q634,640 593,474"/>
<path d="M676,609 Q668,649 660,645"/>
<path d="M585,531 Q748,678 912,467"/>
<path d="M585,531 Q617,550 650,410"/>
<path d="M585,531 Q502,632 420,563"/>
<path d="M585,531 Q480,624 376,438"/>
<path d="M585,531 Q1057,794 1530,503"/>
<path d="M585,531 Q702,640 820,521"/>
<path d="M585,531 Q854,693 1124,413"/>
<path d="M585,531 Q997,885 1409,462"/>
<path d="M585,531 Q476,639 367,512"/>
<path d="M421,692 Q414,696 408,653"/>
<path d="M1702,410 Q1278,858 855,494"/>
<path d="M345,352 Q691,678 1037,350"/>
<path d="M376,438 Q393,452 410,433"/>
<path d="M376,438 Q685,831 995,608"/>
<path d="M1345,442 Q1180,525 1016,323"/>
<path d="M1345,442 Q1227,552 1109,361"/>
<path d="M1345,442 Q916,844 487,476"/>
<path d="M981,562 Q1087,629 1194,505"/>
<path d="M981,562 Q901,621 821,378"/>
<path d="M981,562 Q1122,653 1264,482"/>
<path d="M981,562 Q938,663 896,637"/>
<path d="M981,562 Q1336,773 1691,453"/>
<path d="M981,562 Q756,702 532,459"/>
<path d="M981,562 Q1039,619 1098,552"/>
<path d="M981,562 Q734,773 487,476"/>
<path d="M981,562 Q1242,758 1504,480"/>
<path d="M981,562 Q968,573 956,333"/>
<path d="M981,562 Q934,599 888,547"/>
<path d="M981,562 Q1033,597 1086,534"/>
<path d="M981,562 Q1085,624 1190,314"/>
<path d="M981,562 Q956,582 932,506"/>
<path d="M982,361 Q1088,590 1194,505"/>
<path d="M982,361 Q735,838 489,710"/>
<path d="M982,361 Q1015,382 1049,335"/>
<path d="M982,361 Q801,555 621,384"/>
<path d="M982,361 Q848,788 715,675"/>
<path d="M982,361 Q791,521 601,409"/>
<path d="M982,361 Q1053,454 1124,413"/>
<path d="M982,361 Q999,373 1016,323"/>
<path d="M982,361 Q933,408 884,355"/>
<path d="M982,361 Q957,527 932,506"/>
<path d="M982,361 Q827,596 673,480"/>
<path d="M1042,375 Q1000,622 958,594"/>
<path d="M1042,375 Q1083,436 1124,413"/>
<path d="M1042,375 Q726,740 410,433"/>
<path d="M1042,375 Q1075,396 1109,361"/>
<path d="M1294,498 Q1209,560 1124,413"/>
<path d="M218,536 Q663,801 1109,361"/>
<path d="M747,314 Q766,377 786,358"/>
<path d="M747,314 Q928,517 1109,361"/>
<path d="M747,314 Q868,392 989,251"/>
<path d="M1090,582 Q1107,596 1124,413"/>
<path d="M1090,582 Q989,677 888,547"/>
<path d="M1090,582 Q1139,627 1189,262"/>
<path d="M1621,529 Q1461,613 1302,413"/>
<path d="M1621,529 Q1192,862 763,605"/>
<path d="M1621,529 Q1575,571 1530,503"/>
<path d="M1194,505 Q897,695 601,409"/>
<path d="M1194,505 Q792,791 391,458"/>
<path d="M1194,505 Q1159,536 1124,413"/>
<path d="M569,383 Q1085,837 1602,481"/>
<path d="M569,383 Q1095,1027 1621,529"/>
<path d="M569,383 Q561,561 554,556"/>
<path d="M569,383 Q644,513 719,463"/>
<path d="M569,383 Q486,467 404,413"/>
<path d="M490,610 Q455,640 420,563"/>
<path d="M490,610 Q428,668 367,512"/>
<path d="M490,610 Q807,776 1124,413"/>
<path d="M385,615 Q396,660 408,653"/>
<path d="M466,445 Q386,508 306,395"/>
<path d="M466,445 Q421,468 376,438"/>
<path d="M466,445 Q998,832 1530,503"/>
<path d="M466,445 Q677,697 888,547"/>
<path d="M466,445 Q828,774 1190,314"/>
<path d="M466,445 Q787,721 1109,361"/>
<path d="M466,445 Q590,563 714,444"/>
<path d="M1571,590 Q1550,609 1530,503"/>
<path d="M1571,590 Q969,910 368,394"/>
<path d="M1571,590 Q1066,962 561,568"/>
<path d="M878,399 Q1062,533 1247,329"/>
<path d="M878,399 Q801,525 724,481"/>
<path d="M791,430 Q839,618 888,584"/>
<path d="M791,430 Q957,594 1124,413"/>
<path d="M791,430 Q757,507 724,481"/>
<path d="M791,430 Q903,609 1016,524"/>
<path d="M1556,440 Q1078,807 601,409"/>
<path d="M1556,440 Q1543,515 1530,503"/>
<path d="M1556,440 Q1340,552 1124,413"/>
<path d="M1556,440 Q1332,578 1109,361"/>
<path d="M1078,506 Q1057,523 1037,350"/>
<path d="M1078,506 Q805,686 532,459"/>
<path d="M1078,506 Q1101,528 1124,413"/>
<path d="M1078,506 Q1036,629 995,608"/>
<path d="M1078,506 Q782,704 487,476"/>
<path d="M724,558 Q587,677 451,598"/>
<path d="M724,558 Q631,619 539,516"/>
<path d="M724,558 Q1070,754 1417,491"/>
<path d="M724,558 Q544,748 364,598"/>
<path d="M724,558 Q646,632 569,383"/>
<path d="M724,558 Q784,599 844,420"/>
<path d="M724,558 Q721,560 719,463"/>
<path d="M888,547 Q649,759 410,433"/>
<path d="M888,547 Q601,713 314,454"/>
<path d="M888,547 Q597,704 306,395"/>
<path d="M888,547 Q1209,733 1530,503"/>
<path d="M888,547 Q923,624 958,594"/>
<path d="M888,547 Q861,596 834,579"/>
<path d="M888,547 Q1006,652 1124,413"/>
<path d="M888,547 Q997,644 1106,566"/>
<path d="M888,547 Q1041,684 1194,505"/>
<path d="M888,547 Q801,613 714,444"/>
<path d="M888,547 Q1229,919 1571,590"/>
<path d="M888,547 Q879,553 871,508"/>
<path d="M888,547 Q909,558 930,487"/>
<path d="M888,547 Q1155,693 1423,510"/>
<path d="M888,547 Q850,624 813,591"/>
<path d="M888,547 Q946,588 1004,551"/>
<path d="M888,547 Q842,598 797,568"/>
<path d="M888,547 Q759,678 631,564"/>
<path d="M888,547 Q689,733 490,534"/>
<path d="M888,547 Q998,637 1109,361"/>
<path d="M888,547 Q724,677 561,568"/>
<path d="M513,413 Q560,462 608,422"/>
<path d="M513,413 Q647,532 781,463"/>
<path d="M1615,555 Q1326,784 1037,350"/>
<path d="M1615,555 Q1255,825 896,637"/>
<path d="M1615,555 Q1203,788 792,242"/>
<path d="M1615,555 Q1251,823 888,584"/>
<path d="M1615,555 Q1074,910 533,399"/>
<path d="M1615,555 Q1572,586 1530,503"/>
<path d="M1615,555 Q1043,1061 471,413"/>
<path d="M1615,555 Q1084,1064 554,556"/>
<path d="M314,454 Q861,889 1409,462"/>
<path d="M1107,350 Q1115,419 1124,413"/>
<path d="M1107,350 Q1108,361 1109,361"/>
<path d="M323,617 Q340,631 358,559"/>
<path d="M323,617 Q308,677 293,664"/>
<path d="M323,617 Q365,695 408,653"/>
<path d="M593,474 Q706,556 820,481"/>
<path d="M593,474 Q1097,958 1602,481"/>
<path d="M593,474 Q858,731 1124,413"/>
<path d="M593,474 Q573,570 554,556"/>
<path d="M593,474 Q656,526 719,463"/>
<path d="M593,474 Q658,536 724,481"/>
<path d="M614,511 Q950,841 1287,519"/>
<path d="M614,511 Q751,674 888,584"/>
<path d="M614,511 Q607,514 601,409"/>
<path d="M614,511 Q573,545 532,459"/>
<path d="M614,511 Q869,744 1124,413"/>
<path d="M614,511 Q966,788 1319,508"/>
<path d="M614,511 Q749,593 884,355"/>
<path d="M614,511 Q714,694 814,628"/>
<path d="M614,511 Q669,548 724,481"/>
<path d="M614,511 Q823,686 1033,387"/>
<path d="M614,511 Q840,673 1066,443"/>
<path d="M614,511 Q751,645 888,547"/>
<path d="M614,511 Q587,585 561,568"/>
<path d="M614,511 Q604,520 595,370"/>
<path d="M1161,580 Q1057,693 953,605"/>
<path d="M1117,436 Q1341,611 1566,451"/>
<path d="M1117,436 Q1049,484 982,361"/>
<path d="M1117,436 Q1103,593 1090,582"/>
<path d="M1117,436 Q865,668 614,511"/>
<path d="M1117,436 Q1068,509 1019,479"/>
<path d="M1533,420 Q1417,503 1302,413"/>
<path d="M1533,420 Q1043,936 554,556"/>
<path d="M1533,420 Q1148,885 763,605"/>
<path d="M1533,420 Q1188,661 844,420"/>
<path d="M1533,420 Q1531,504 1530,503"/>
<path d="M337,417 Q352,525 367,512"/>
<path d="M337,417 Q730,623 1124,413"/>
<path d="M337,417 Q717,838 1098,552"/>
<path d="M337,417 Q445,620 554,556"/>
<path d="M337,417 Q384,529 431,492"/>
<path d="M337,417 Q528,598 719,463"/>
<path d="M337,417 Q401,467 465,423"/>
<path d="M337,417 Q723,785 1109,361"/>
<path d="M1206,480 Q1200,508 1194,505"/>
<path d="M1206,480 Q1165,507 1124,413"/>
<path d="M1206,480 Q1241,515 1277,453"/>
<path d="M1206,480 Q869,670 533,399"/>
<path d="M801,368 Q762,512 724,481"/>
<path d="M1580,468 Q943,936 306,395"/>
<path d="M1580,468 Q1555,522 1530,503"/>
<path d="M662,360 Q954,625 1247,329"/>
<path d="M662,360 Q1096,782 1530,503"/>
<path d="M662,360 Q693,510 724,481"/>
<path d="M662,360 Q839,636 1016,524"/>
<path d="M410,433 Q338,662 266,600"/>
<path d="M410,433 Q702,821 995,608"/>
<path d="M410,433 Q640,721 871,508"/>
<path d="M718,508 Q721,509 724,481"/>
<path d="M718,508 Q716,509 714,444"/>
<path d="M869,435 Q890,481 912,467"/>
<path d="M869,435 Q909,459 949,425"/>
<path d="M869,435 Q792,729 715,675"/>
<path d="M869,435 Q844,542 820,521"/>
<path d="M869,435 Q791,505 714,444"/>
<path d="M330,549 Q567,688 804,498"/>
<path d="M330,549 Q529,713 728,545"/>
<path d="M330,549 Q816,1007 1302,365"/>
<path d="M330,549 Q713,888 1097,322"/>
<path d="M1124,321 Q1116,367 1109,361"/>
<path d="M404,413 Q967,857 1530,503"/>
<path d="M404,413 Q853,765 1302,413"/>
<path d="M404,413 Q906,887 1409,462"/>
<path d="M404,413 Q583,778 763,605"/>
<path d="M404,413 Q624,592 844,420"/>
<path d="M930,487 Q1019,549 1109,361"/>
<path d="M827,454 Q749,609 671,536"/>
<path d="M827,454 Q1057,662 1287,519"/>
<path d="M827,454 Q823,523 820,521"/>
<path d="M827,454 Q787,491 747,314"/>
<path d="M827,454 Q607,719 387,527"/>
<path d="M827,454 Q1259,732 1691,453"/>
<path d="M827,454 Q962,637 1098,552"/>
<path d="M827,454 Q1073,653 1319,508"/>
<path d="M827,454 Q657,593 487,476"/>
<path d="M827,454 Q1165,673 1504,480"/>
<path d="M827,454 Q794,530 762,500"/>
<path d="M827,454 Q968,574 1109,361"/>
<path d="M827,454 Q775,526 724,481"/>
<path d="M580,489 Q610,723 640,705"/>
<path d="M580,489 Q873,749 1167,303"/>
<path d="M580,489 Q495,568 410,433"/>
<path d="M580,489 Q1094,918 1609,504"/>
<path d="M580,489 Q463,647 347,582"/>
<path d="M580,489 Q690,584 801,368"/>
<path d="M580,489 Q654,584 728,545"/>
<path d="M580,489 Q940,724 1300,341"/>
<path d="M580,489 Q540,654 501,631"/>
<path d="M580,489 Q483,620 387,527"/>
<path d="M580,489 Q649,539 719,463"/>
<path d="M580,489 Q508,557 437,360"/>
<path d="M580,489 Q546,507 513,413"/>
<path d="M834,579 Q914,660 995,608"/>
<path d="M367,512 Q892,864 1417,491"/>
<path d="M367,512 Q458,598 549,338"/>
<path d="M367,512 Q593,646 820,481"/>
<path d="M367,512 Q523,634 679,410"/>
<path d="M367,512 Q593,627 819,471"/>
<path d="M367,512 Q536,748 706,593"/>
<path d="M367,512 Q484,575 601,409"/>
<path d="M367,512 Q492,589 617,432"/>
<path d="M367,512 Q745,866 1124,413"/>
<path d="M367,512 Q988,923 1609,504"/>
<path d="M367,512 Q931,1101 1495,607"/>
<path d="M367,512 Q765,874 1163,520"/>
<path d="M367,512 Q956,839 1545,542"/>
<path d="M367,512 Q518,760 670,633"/>
<path d="M367,512 Q605,652 844,420"/>
<path d="M367,512 Q348,564 330,549"/>
<path d="M367,512 Q385,527 404,413"/>
<path d="M367,512 Q549,698 731,583"/>
<path d="M367,512 Q827,886 1287,519"/>
<path d="M367,512 Q393,585 420,563"/>
<path d="M367,512 Q407,539 448,508"/>
<path d="M367,512 Q691,799 1016,524"/>
<path d="M367,512 Q584,711 801,368"/>
<path d="M367,512 Q545,684 724,481"/>
<path d="M367,512 Q611,645 855,494"/>
<path d="M367,512 Q540,681 714,444"/>
<path d="M367,512 Q537,669 707,381"/>
<path d="M367,512 Q508,592 650,410"/>
<path d="M367,512 Q520,595 673,514"/>
<path d="M367,512 Q434,697 501,631"/>
<path d="M367,512 Q543,685 719,463"/>
<path d="M367,512 Q322,661 278,621"/>
<path d="M1179,339 Q1144,384 1109,361"/>
<path d="M620,451 Q515,552 410,433"/>
<path d="M620,451 Q560,676 501,631"/>
<path d="M620,451 Q872,650 1124,413"/>
<path d="M620,451 Q635,459 651,422"/>
<path d="M620,451 Q645,656 670,633"/>
<path d="M620,451 Q667,481 714,444"/>
<path d="M420,563 Q435,612 451,598"/>
<path d="M420,563 Q398,575 376,438"/>
<path d="M420,563 Q975,1021 1530,503"/>
<path d="M420,563 Q383,604 347,582"/>
<path d="M420,563 Q610,664 801,368"/>
<path d="M420,563 Q772,882 1124,413"/>
<path d="M420,563 Q487,614 554,556"/>
<path d="M420,563 Q591,696 762,500"/>
<path d="M420,563 Q456,599 493,570"/>
<path d="M420,563 Q644,756 869,435"/>
<path d="M420,563 Q460,656 501,631"/>
<path d="M420,563 Q403,574 387,527"/>
<path d="M532,459 Q853,623 1175,380"/>
<path d="M532,459 Q375,652 218,536"/>
<path d="M532,459 Q1049,952 1566,451"/>
<path d="M532,459 Q509,494 487,476"/>
<path d="M695,706 Q630,752 566,642"/>
<path d="M695,706 Q757,750 820,481"/>
<path d="M1417,491 Q1473,544 1530,503"/>
<path d="M1417,491 Q1359,547 1302,413"/>
<path d="M1417,491 Q1413,493 1409,462"/>
<path d="M1417,491 Q1130,704 844,420"/>
<path d="M1417,491 Q1257,572 1097,322"/>
<path d="M804,498 Q685,716 566,642"/>
<path d="M804,498 Q645,578 487,476"/>
<path d="M804,498 Q956,622 1109,361"/>
<path d="M502,521 Q534,661 566,642"/>
<path d="M502,521 Q805,785 1109,361"/>
<path d="M502,521 Q608,609 714,444"/>
<path d="M943,415 Q882,449 821,378"/>
<path d="M943,415 Q1033,478 1124,413"/>
<path d="M943,415 Q936,491 930,487"/>
<path d="M943,415 Q715,672 487,476"/>
<path d="M1215,458 Q1162,510 1109,361"/>
<path d="M408,653 Q606,784 804,498"/>
<path d="M408,653 Q660,868 912,467"/>
<path d="M408,653 Q392,661 376,438"/>
<path d="M408,653 Q511,730 614,511"/>
<path d="M408,653 Q387,666 367,512"/>
<path d="M408,653 Q365,713 322,685"/>
<path d="M408,653 Q427,789 446,778"/>
<path d="M408,653 Q801,1036 1194,505"/>
<path d="M408,653 Q448,738 489,710"/>
<path d="M408,653 Q446,681 485,661"/>
<path d="M408,653 Q468,744 529,687"/>
<path d="M1334,401 Q982,823 631,564"/>
<path d="M1334,401 Q1229,489 1124,413"/>
<path d="M1334,401 Q1185,541 1037,350"/>
<path d="M1334,401 Q839,656 345,352"/>
<path d="M1334,401 Q1221,502 1109,361"/>
<path d="M590,302 Q578,652 566,642"/>
<path d="M590,302 Q694,575 799,509"/>
<path d="M590,302 Q691,377 792,242"/>
<path d="M590,302 Q595,414 601,409"/>
<path d="M590,302 Q932,727 1274,389"/>
<path d="M590,302 Q1102,1027 1615,555"/>
<path d="M590,302 Q705,619 820,521"/>
<path d="M590,302 Q857,654 1124,413"/>
<path d="M590,302 Q676,572 762,500"/>
<path d="M590,302 Q478,620 367,512"/>
<path d="M590,302 Q702,706 814,628"/>
<path d="M590,302 Q787,512 984,398"/>
<path d="M590,302 Q510,541 431,492"/>
<path d="M590,302 Q729,568 869,435"/>
<path d="M590,302 Q530,444 471,413"/>
<path d="M590,302 Q585,491 580,489"/>
<path d="M590,302 Q844,694 1098,552"/>
<path d="M590,302 Q828,583 1066,443"/>
<path d="M590,302 Q575,580 561,568"/>
<path d="M590,302 Q599,427 608,422"/>
<path d="M590,302 Q840,679 1090,517"/>
<path d="M590,302 Q938,728 1287,519"/>
<path d="M590,302 Q448,489 306,395"/>
<path d="M590,302 Q739,666 888,584"/>
<path d="M590,302 Q561,422 533,399"/>
<path d="M590,302 Q659,603 728,545"/>
<path d="M590,302 Q620,452 651,422"/>
<path d="M590,302 Q954,765 1319,508"/>
<path d="M590,302 Q737,485 884,355"/>
<path d="M590,302 Q657,541 724,481"/>
<path d="M590,302 Q656,577 722,521"/>
<path d="M590,302 Q630,575 671,536"/>
<path d="M590,302 Q813,493 1037,350"/>
<path d="M590,302 Q1096,788 1602,481"/>
<path d="M590,302 Q853,653 1117,436"/>
<path d="M590,302 Q499,734 408,653"/>
<path d="M590,302 Q623,417 656,392"/>
<path d="M590,302 Q488,615 387,527"/>
<path d="M590,302 Q528,490 466,445"/>
<path d="M549,338 Q836,622 1124,413"/>
<path d="M549,338 Q631,502 714,444"/>
<path d="M1495,607 Q1512,620 1530,503"/>
<path d="M1495,607 Q1024,926 554,556"/>
<path d="M322,685 Q499,796 676,575"/>
<path d="M1608,491 Q1569,539 1530,503"/>
<path d="M1608,491 Q1366,725 1124,413"/>
<path d="M1608,491 Q1081,997 554,556"/>
<path d="M1608,491 Q999,902 391,458"/>
<path d="M883,316 Q1003,490 1124,413"/>
<path d="M883,316 Q897,477 912,467"/>
<path d="M673,514 Q758,573 844,420"/>
<path d="M673,514 Q698,533 724,481"/>
<path d="M490,534 Q522,572 554,556"/>
<path d="M490,534 Q807,823 1124,413"/>
<path d="M368,394 Q488,524 608,422"/>
<path d="M368,394 Q464,621 561,568"/>
<path d="M368,394 Q427,523 487,476"/>
<path d="M1182,444 Q1033,592 884,355"/>
<path d="M1182,444 Q1153,467 1124,413"/>
<path d="M706,593 Q510,703 314,454"/>
<path d="M706,593 Q915,745 1124,413"/>
<path d="M706,593 Q630,655 554,556"/>
<path d="M706,593 Q518,772 330,549"/>
<path d="M706,593 Q715,599 724,481"/>
<path d="M697,395 Q631,688 566,642"/>
<path d="M697,395 Q980,746 1264,482"/>
<path d="M697,395 Q992,801 1287,519"/>
<path d="M697,395 Q558,666 420,563"/>
<path d="M697,395 Q858,606 1019,479"/>
<path d="M697,395 Q615,452 533,399"/>
<path d="M697,395 Q910,546 1124,413"/>
<path d="M697,395 Q1008,664 1319,508"/>
<path d="M697,395 Q729,523 762,500"/>
<path d="M697,395 Q705,450 714,444"/>
<path d="M697,395 Q684,544 671,536"/>
<path d="M697,395 Q907,636 1117,436"/>
<path d="M697,395 Q762,518 827,454"/>
<path d="M697,395 Q1194,912 1691,453"/>
<path d="M697,395 Q643,432 590,302"/>
<path d="M697,395 Q629,623 561,568"/>
<path d="M917,457 Q1013,540 1109,361"/>
<path d="M569,351 Q792,640 1016,524"/>
<path d="M569,351 Q908,532 1247,329"/>
<path d="M569,351 Q728,678 888,584"/>
<path d="M569,351 Q646,542 724,481"/>
<path d="M554,556 Q594,582 635,548"/>
<path d="M554,556 Q522,606 491,584"/>
<path d="M554,556 Q839,820 1124,413"/>
<path d="M554,556 Q682,673 811,531"/>
<path d="M554,556 Q634,614 714,444"/>
<path d="M554,556 Q612,662 670,633"/>
<path d="M554,556 Q557,571 561,568"/>
<path d="M1525,462 Q1100,849 676,575"/>
<path d="M1525,462 Q1324,567 1124,413"/>
<path d="M1525,462 Q1527,505 1530,503"/>
<path d="M1525,462 Q1401,557 1277,453"/>
<path d="M811,531 Q1206,735 1602,481"/>
<path d="M811,531 Q593,703 376,438"/>
<path d="M811,531 Q787,624 763,605"/>
<path d="M811,531 Q767,561 724,481"/>
<path d="M747,342 Q733,473 719,463"/>
<path d="M747,342 Q606,531 465,423"/>
<path d="M814,628 Q687,740 561,568"/>
<path d="M814,628 Q940,722 1066,443"/>
<path d="M1124,413 Q1151,517 1178,494"/>
<path d="M1124,413 Q750,803 376,438"/>
<path d="M1124,413 Q920,569 717,360"/>
<path d="M1124,413 Q1111,564 1098,552"/>
<path d="M1124,413 Q1116,420 1109,361"/>
<path d="M1124,413 Q989,620 855,494"/>
<path d="M1124,413 Q919,587 714,444"/>
<path d="M1124,413 Q879,694 635,548"/>
<path d="M1124,413 Q862,658 601,409"/>
<path d="M1124,413 Q1013,474 903,376"/>
<path d="M1124,413 Q1169,496 1215,458"/>
<path d="M1124,413 Q721,766 319,517"/>
<path d="M1124,413 Q997,627 871,508"/>
<path d="M1124,413 Q1095,465 1066,443"/>
<path d="M1124,413 Q1110,425 1097,322"/>
<path d="M1124,413 Q964,586 804,498"/>
<path d="M1124,413 Q1206,474 1289,378"/>
<path d="M1124,413 Q828,741 532,459"/>
<path d="M1124,413 Q1363,673 1602,481"/>
<path d="M1124,413 Q1120,415 1117,373"/>
<path d="M1124,413 Q1056,461 989,251"/>
<path d="M1124,413 Q1214,660 1305,608"/>
<path d="M1124,413 Q1156,442 1189,262"/>
<path d="M1124,413 Q806,876 489,710"/>
<path d="M1124,413 Q958,500 792,242"/>
<path d="M1124,413 Q1149,428 1175,380"/>
<path d="M1124,413 Q1213,492 1302,365"/>
<path d="M1124,413 Q1078,436 1033,387"/>
<path d="M1124,413 Q764,734 404,334"/>
<path d="M1124,413 Q842,756 561,568"/>
<path d="M1124,413 Q1052,509 981,457"/>
<path d="M1124,413 Q805,784 487,476"/>
<path d="M1124,413 Q924,593 724,481"/>
<path d="M1124,413 Q1234,551 1345,442"/>
<path d="M799,509 Q801,511 804,498"/>
<path d="M799,509 Q966,658 1133,507"/>
<path d="M799,509 Q954,586 1109,361"/>
<path d="M799,509 Q841,538 884,355"/>
<path d="M799,509 Q756,541 714,444"/>
<path d="M501,631 Q527,649 554,556"/>
<path d="M724,481 Q764,521 804,498"/>
<path d="M724,481 Q789,530 855,494"/>
<path d="M790,453 Q889,533 989,251"/>
<path d="M790,453 Q583,625 376,438"/>
<path d="M790,453 Q949,587 1109,361"/>
<path d="M790,453 Q752,482 714,444"/>
<path d="M1049,403 Q1086,439 1124,413"/>
<path d="M662,494 Q690,512 719,463"/>
<path d="M662,494 Q563,568 465,423"/>
<path d="M662,494 Q1141,787 1621,529"/>
<path d="M888,584 Q1067,677 1247,329"/>
<path d="M888,584 Q718,702 549,338"/>
<path d="M888,584 Q854,617 820,481"/>
<path d="M888,584 Q783,686 679,410"/>
<path d="M888,584 Q764,704 640,462"/>
<path d="M888,584 Q632,798 376,438"/>
<path d="M888,584 Q1081,769 1274,389"/>
<path d="M888,584 Q1006,689 1124,413"/>
<path d="M888,584 Q941,640 995,608"/>
<path d="M888,584 Q828,632 768,513"/>
<path d="M888,584 Q883,587 878,399"/>
<path d="M888,584 Q1025,719 1163,520"/>
<path d="M888,584 Q998,686 1109,361"/>
<path d="M888,584 Q860,610 833,357"/>
<path d="M888,584 Q724,666 561,568"/>
<path d="M888,584 Q846,624 804,498"/>
<path d="M888,584 Q775,649 662,360"/>
<path d="M888,584 Q649,704 410,433"/>
<path d="M888,584 Q597,779 306,395"/>
<path d="M888,584 Q668,783 448,508"/>
<path d="M888,584 Q803,630 718,508"/>
<path d="M888,584 Q952,640 1016,524"/>
<path d="M888,584 Q1222,901 1556,440"/>
<path d="M888,584 Q1091,719 1294,498"/>
<path d="M888,584 Q806,644 724,481"/>
<path d="M888,584 Q801,668 714,444"/>
<path d="M888,584 Q871,597 855,494"/>
<path d="M888,584 Q759,659 631,564"/>
<path d="M888,584 Q695,717 502,521"/>
<path d="M714,444 Q753,466 792,242"/>
<path d="M714,444 Q657,476 601,409"/>
<path d="M714,444 Q667,476 621,384"/>
<path d="M714,444 Q559,589 404,334"/>
<path d="M714,444 Q773,494 833,357"/>
<path d="M714,444 Q600,580 487,476"/>
<path d="M714,444 Q719,484 724,481"/>
<path d="M259,582 Q345,644 431,492"/>
<path d="M259,582 Q282,596 306,395"/>
<path d="M259,582 Q524,807 790,453"/>
<path d="M259,582 Q396,703 533,399"/>
<path d="M259,582 Q708,851 1158,540"/>
<path d="M259,582 Q620,838 981,562"/>
<path d="M259,582 Q588,888 917,457"/>
<path d="M259,582 Q881,952 1504,480"/>
<path d="M259,582 Q573,773 888,547"/>
<path d="M259,582 Q642,893 1025,460"/>
<path d="M1160,275 Q782,598 404,334"/>
<path d="M1160,275 Q1142,428 1124,413"/>
<path d="M1160,275 Q844,923 529,687"/>
<path d="M1050,457 Q1308,598 1566,451"/>
<path d="M1050,457 Q1303,611 1556,440"/>
<path d="M1050,457 Q1087,478 1124,413"/>
<path d="M1050,457 Q1112,489 1175,380"/>
<path d="M1050,457 Q768,665 487,476"/>
<path d="M1133,507 Q1128,509 1124,413"/>
<path d="M1133,507 Q1121,517 1109,361"/>
<path d="M1133,507 Q810,690 487,476"/>
<path d="M1120,311 Q898,767 676,575"/>
<path d="M1120,311 Q1122,414 1124,413"/>
<path d="M1120,311 Q844,528 569,351"/></g><g font-family="Monospace"><text x="649" y="536" fill="#6a6aa2" font-size="10">libtiff</text>
<text x="795" y="407" fill="#6a6aa2" font-size="10">harfbuzz</text>
<text x="562" y="500" fill="#0000ff" font-size="10">gperf</text>
<text x="847" y="618" fill="#6a6aa2" font-size="10">libwebp</text>
<text x="743" y="500" fill="#6a6aa2" font-size="10">libelf</text>
<text x="612" y="633" fill="#6a6aa2" font-size="10">hicolor-icon-theme</text>
<text x="456" y="552" fill="#6a6aa2" font-size="10">atk</text>
<text x="937" y="605" fill="#6a6aa2" font-size="10">lua51</text>
<text x="760" y="487" fill="#0000ff" font-size="13">make</text>
<text x="715" y="583" fill="#6a6aa2" font-size="10">lcms2</text>
<text x="1297" y="486" fill="#6a6aa2" font-size="10">libtasn1</text>
<text x="1402" y="432" fill="#6a6aa2" font-size="10">shared-mime-info</text>
<text x="419" y="598" fill="#6a6aa2" font-size="10">libxxf86vm</text>
<text x="1009" y="460" fill="#6a6aa2" font-size="10">libsm</text>
<text x="791" y="591" fill="#6a6aa2" font-size="10">jansson</text>
<text x="397" y="372" fill="#0000ff" font-size="10">xorg-xinput</text>
<text x="937" y="443" fill="#0000ff" font-size="17">clion-lldb</text>
<text x="573" y="370" fill="#6a6aa2" font-size="10">libsasl</text>
<text x="966" y="473" fill="#0000ff" font-size="10">mpc</text>
<text x="883" y="523" fill="#0000ff" font-size="13">neovim-git</text>
<text x="366" y="778" fill="#0000ff" font-size="19">linux-headers</text>
<text x="1085" y="552" fill="#6a6aa2" font-size="10">file</text>
<text x="678" y="381" fill="#6a6aa2" font-size="10">libbluray</text>
<text x="941" y="323" fill="#6a6aa2" font-size="10">texinfo</text>
<text x="227" y="600" fill="#6a6aa2" font-size="10">at-spi2-core</text>
<text x="927" y="425" fill="#6a6aa2" font-size="10">libedit</text>
<text x="107" y="131" fill="#0000ff" font-size="100">clion</text>
<text x="634" y="392" fill="#0000ff" font-size="10">ncmpcpp</text>
<text x="1085" y="373" fill="#0000ff" font-size="10">dosfstools</text>
<text x="1260" y="378" fill="#6a6aa2" font-size="10">diffutils</text>
<text x="230" y="704" fill="#0000ff" font-size="10">speedtest-cli</text>
<text x="793" y="471" fill="#6a6aa2" font-size="10">libvdpau</text>
<text x="984" y="524" fill="#6a6aa2" font-size="10">libsndfile</text>
<text x="794" y="481" fill="#6a6aa2" font-size="10">libpulse</text>
<text x="676" y="675" fill="#0000ff" font-size="30">llvm</text>
<text x="217" y="611" fill="#6a6aa2" font-size="10">xorg-xrandr</text>
<text x="259" y="621" fill="#6a6aa2" font-size="10">libxss</text>
<text x="1088" y="322" fill="#0000ff" font-size="10">feh</text>
<text x="1393" y="462" fill="#0000ff" font-size="10">dunst</text>
<text x="608" y="462" fill="#6a6aa2" font-size="10">libmodplug</text>
<text x="476" y="710" fill="#6a6aa2" font-size="10">gdbm</text>
<text x="616" y="548" fill="#6a6aa2" font-size="10">argon2</text>
<text x="910" y="578" fill="#6a6aa2" font-size="10">p11-kit</text>
<text x="290" y="517" fill="#6a6aa2" font-size="10">findutils</text>
<text x="773" y="414" fill="#0000ff" font-size="10">vi</text>
<text x="446" y="423" fill="#6a6aa2" font-size="10">libxmu</text>
<text x="1021" y="350" fill="#6a6aa2" font-size="10">gnupg</text>
<text x="598" y="432" fill="#6a6aa2" font-size="10">libass</text>
<text x="581" y="619" fill="#6a6aa2" font-size="10">xcb-util-renderutil</text>
<text x="634" y="410" fill="#6a6aa2" font-size="10">libva</text>
<text x="1583" y="504" fill="#6a6aa2" font-size="10">libepoxy</text>
<text x="711" y="404" fill="#6a6aa2" font-size="10">libproxy</text>
<text x="1273" y="608" fill="#6a6aa2" font-size="10">filesystem</text>
<text x="1121" y="520" fill="#6a6aa2" font-size="10">libsamplerate</text>
<text x="1181" y="314" fill="#6a6aa2" font-size="10">pam</text>
<text x="666" y="410" fill="#6a6aa2" font-size="10">jack</text>
<text x="462" y="413" fill="#6a6aa2" font-size="10">nss</text>
<text x="764" y="303" fill="#0000ff" font-size="10">htop</text>
<text x="1077" y="517" fill="#0000ff" font-size="10">sudo</text>
<text x="548" y="582" fill="#0000ff" font-size="10">pulseaudio-jack</text>
<text x="829" y="494" fill="#6a6aa2" font-size="10">alsa-lib</text>
<text x="937" y="333" fill="#6a6aa2" font-size="10">shadow</text>
<text x="487" y="399" fill="#0000ff" font-size="13">mutt-wizard</text>
<text x="979" y="608" fill="#6a6aa2" font-size="10">avahi</text>
<text x="383" y="334" fill="#0000ff" font-size="13">cmake</text>
<text x="1013" y="598" fill="#0000ff" font-size="10">lua51-mpack</text>
<text x="700" y="463" fill="#6a6aa2" font-size="10">libx11</text>
<text x="1185" y="370" fill="#0000ff" font-size="10">dialog</text>
<text x="1090" y="453" fill="#0000ff" font-size="10">mtools</text>
<text x="1009" y="426" fill="#0000ff" font-size="10">pkgconf</text>
<text x="1391" y="510" fill="#6a6aa2" font-size="11">iso-codes</text>
<text x="893" y="467" fill="#6a6aa2" font-size="10">libffi</text>
<text x="820" y="357" fill="#6a6aa2" font-size="10">flac</text>
<text x="1054" y="566" fill="#6a6aa2" font-size="10">libdbusmenu-glib</text>
<text x="1287" y="413" fill="#0000ff" font-size="12">gtk2</text>
<text x="589" y="395" fill="#0000ff" font-size="10">zsh</text>
<text x="630" y="343" fill="#6a6aa2" font-size="16">sdl2</text>
<text x="1148" y="392" fill="#0000ff" font-size="10">nerd-fonts-hack</text>
<text x="981" y="493" fill="#6a6aa2" font-size="10">libseccomp</text>
<text x="289" y="395" fill="#6a6aa2" font-size="11">glib2</text>
<text x="747" y="388" fill="#6a6aa2" font-size="10">librsvg</text>
<text x="1242" y="453" fill="#6a6aa2" font-size="12">smbclient</text>
<text x="805" y="339" fill="#0000ff" font-size="10">yay</text>
<text x="887" y="506" fill="#0000ff" font-size="10">pacman-contrib</text>
<text x="1586" y="481" fill="#6a6aa2" font-size="10">cairo</text>
<text x="932" y="594" fill="#6a6aa2" font-size="10">iproute2</text>
<text x="485" y="429" fill="#6a6aa2" font-size="10">libxfixes</text>
<text x="1148" y="303" fill="#6a6aa2" font-size="10">pixman</text>
<text x="326" y="559" fill="#6a6aa2" font-size="10">python-six</text>
<text x="968" y="457" fill="#0000ff" font-size="10">flex</text>
<text x="1233" y="268" fill="#6a6aa2" font-size="10">m4</text>
<text x="548" y="568" fill="#6a6aa2" font-size="10">curl</text>
<text x="350" y="471" fill="#6a6aa2" font-size="10">pango</text>
<text x="1057" y="534" fill="#6a6aa2" font-size="10">libcap-ng</text>
<text x="1261" y="341" fill="#6a6aa2" font-size="10">libpciaccess</text>
<text x="1527" y="569" fill="#6a6aa2" font-size="10">gtk-update-icon-cache</text>
<text x="586" y="409" fill="#6a6aa2" font-size="12">fftw</text>
<text x="1228" y="329" fill="#6a6aa2" font-size="10">libogg</text>
<text x="1061" y="388" fill="#0000ff" font-size="10">stow</text>
<text x="978" y="505" fill="#6a6aa2" font-size="10">libunistring</text>
<text x="694" y="648" fill="#6a6aa2" font-size="10">xorgproto</text>
<text x="517" y="441" fill="#6a6aa2" font-size="10">at-spi2-atk</text>
<text x="1255" y="519" fill="#6a6aa2" font-size="10">libarchive</text>
<text x="614" y="705" fill="#6a6aa2" font-size="10">libinput</text>
<text x="615" y="384" fill="#6a6aa2" font-size="10">db</text>
<text x="1464" y="442" fill="#6a6aa2" font-size="10">hwids</text>
<text x="764" y="358" fill="#6a6aa2" font-size="10">gettext</text>
<text x="1066" y="494" fill="#0000ff" font-size="10">intel-ucode</text>
<text x="1385" y="565" fill="#0000ff" font-size="52">go</text>
<text x="942" y="289" fill="#0000ff" font-size="32">clion-jre</text>
<text x="1201" y="380" fill="#6a6aa2" font-size="10">sed</text>
<text x="1212" y="319" fill="#0000ff" font-size="10">patch</text>
<text x="1018" y="364" fill="#6a6aa2" font-size="10">pacman</text>
<text x="1173" y="288" fill="#0000ff" font-size="10">pulseaudio-alsa</text>
<text x="385" y="360" fill="#6a6aa2" font-size="10">xkeyboard-config</text>
<text x="1057" y="443" fill="#0000ff" font-size="10">exa</text>
<text x="1207" y="410" fill="#0000ff" font-size="12">clion-gdb</text>
<text x="1338" y="422" fill="#6a6aa2" font-size="10">grep</text>
<text x="510" y="687" fill="#6a6aa2" font-size="10">libnsl</text>
<text x="1162" y="494" fill="#0000ff" font-size="10">bison</text>
<text x="973" y="398" fill="#0000ff" font-size="12">vim</text>
<text x="1159" y="351" fill="#0000ff" font-size="10">os-prober</text>
<text x="322" y="598" fill="#6a6aa2" font-size="10">libxcomposite</text>
<text x="734" y="605" fill="#0000ff" font-size="10">alacritty</text>
<text x="1245" y="389" fill="#6a6aa2" font-size="10">libid3tag</text>
<text x="1123" y="540" fill="#0000ff" font-size="10">sbsigntools</text>
<text x="695" y="360" fill="#6a6aa2" font-size="10">fribidi</text>
<text x="1508" y="503" fill="#6a6aa2" font-size="17">gtk3</text>
<text x="1306" y="508" fill="#6a6aa2" font-size="10">kmod</text>
<text x="634" y="645" fill="#6a6aa2" font-size="10">xcb-util</text>
<text x="1010" y="479" fill="#6a6aa2" font-size="10">lz4</text>
<text x="798" y="521" fill="#6a6aa2" font-size="10">libxml2</text>
<text x="1629" y="516" fill="#6a6aa2" font-size="10">krb5</text>
<text x="870" y="637" fill="#6a6aa2" font-size="10">readline</text>
<text x="638" y="422" fill="#6a6aa2" font-size="10">pcre</text>
<text x="302" y="631" fill="#0000ff" font-size="10">python-pyalsa</text>
<text x="799" y="378" fill="#6a6aa2" font-size="10">ncurses</text>
<text x="589" y="422" fill="#6a6aa2" font-size="10">gnutls</text>
<text x="461" y="570" fill="#6a6aa2" font-size="10">libxdamage</text>
<text x="644" y="575" fill="#6a6aa2" font-size="10">pulseaudio</text>
<text x="1025" y="413" fill="#0000ff" font-size="10">lf-git</text>
<text x="332" y="492" fill="#0000ff" font-size="17">minecraft-launcher</text>
<text x="844" y="680" fill="#0000ff" font-size="10">xorg-xbacklight</text>
<text x="873" y="355" fill="#6a6aa2" font-size="12">git</text>
<text x="238" y="664" fill="#6a6aa2" font-size="10">python-setuptools</text>
<text x="286" y="572" fill="#0000ff" font-size="10">xorg-server-devel</text>
<text x="657" y="480" fill="#0000ff" font-size="10">groff</text>
<text x="472" y="584" fill="#6a6aa2" font-size="10">json-c</text>
<text x="365" y="691" fill="#0000ff" font-size="10">ufw</text>
<text x="369" y="458" fill="#6a6aa2" font-size="10">libcups</text>
<text x="1237" y="482" fill="#0000ff" font-size="17">linux</text>
<text x="419" y="532" fill="#6a6aa2" font-size="10">nspr</text>
<text x="703" y="521" fill="#6a6aa2" font-size="10">libpng</text>
<text x="358" y="527" fill="#6a6aa2" font-size="10">libunwind</text>
<text x="1340" y="533" fill="#6a6aa2" font-size="10">libldap</text>
<text x="396" y="508" fill="#6a6aa2" font-size="10">libcdio-paranoia</text>
<text x="772" y="463" fill="#6a6aa2" font-size="10">gmp</text>
<text x="699" y="545" fill="#6a6aa2" font-size="10">freetype2</text>
<text x="755" y="513" fill="#6a6aa2" font-size="10">lame</text>
<text x="822" y="420" fill="#6a6aa2" font-size="10">libxext</text>
<text x="988" y="551" fill="#6a6aa2" font-size="10">libnl</text>
<text x="1096" y="361" fill="#6a6aa2" font-size="10">bash</text>
<text x="517" y="516" fill="#6a6aa2" font-size="10">libxtst</text>
<text x="1521" y="520" fill="#6a6aa2" font-size="10">libtirpc</text>
<text x="739" y="209" fill="#6a6aa2" font-size="10">mpfr</text>
<text x="602" y="564" fill="#6a6aa2" font-size="10">libgcrypt</text>
<text x="1162" y="380" fill="#6a6aa2" font-size="10">attr</text>
<text x="308" y="582" fill="#6a6aa2" font-size="10">libxshmfence</text>
<text x="768" y="568" fill="#6a6aa2" font-size="10">libsecret</text>
<text x="1477" y="480" fill="#6a6aa2" font-size="12">systemd</text>
<text x="1007" y="387" fill="#0000ff" font-size="10">efitools</text>
<text x="1652" y="453" fill="#6a6aa2" font-size="10">systemd-libs</text>
<text x="631" y="609" fill="#6a6aa2" font-size="10">xcb-util-image</text>
<text x="563" y="531" fill="#6a6aa2" font-size="10">wayland</text>
<text x="389" y="692" fill="#0000ff" font-size="10">ranger-git</text>
<text x="1557" y="451" fill="#6a6aa2" font-size="10">acl</text>
<text x="1618" y="410" fill="#0000ff" font-size="29">brave-bin</text>
<text x="329" y="352" fill="#6a6aa2" font-size="10">gpgme</text>
<text x="360" y="438" fill="#6a6aa2" font-size="10">expat</text>
<text x="1332" y="442" fill="#6a6aa2" font-size="10">gawk</text>
<text x="949" y="562" fill="#6a6aa2" font-size="10">util-linux</text>
<text x="964" y="361" fill="#6a6aa2" font-size="14">perl</text>
<text x="1023" y="335" fill="#0000ff" font-size="10">automake</text>
<text x="1016" y="375" fill="#6a6aa2" font-size="10">iptables</text>
<text x="1255" y="498" fill="#6a6aa2" font-size="10">libmpdclient</text>
<text x="150" y="536" fill="#6a6aa2" font-size="10">ca-certificates-utils</text>
<text x="732" y="314" fill="#0000ff" font-size="12">grub</text>
<text x="1077" y="582" fill="#6a6aa2" font-size="10">popt</text>
<text x="1589" y="529" fill="#6a6aa2" font-size="10">libxcursor</text>
<text x="962" y="642" fill="#0000ff" font-size="10">calc</text>
<text x="1165" y="505" fill="#6a6aa2" font-size="10">libxcrypt</text>
<text x="537" y="383" fill="#6a6aa2" font-size="10">libxrender</text>
<text x="835" y="610" fill="#0000ff" font-size="10">bc</text>
<text x="435" y="610" fill="#6a6aa2" font-size="10">vulkan-icd-loader</text>
<text x="356" y="615" fill="#0000ff" font-size="10">reflector</text>
<text x="439" y="445" fill="#6a6aa2" font-size="14">polkit</text>
<text x="1552" y="590" fill="#6a6aa2" font-size="10">libpsl</text>
<text x="1283" y="365" fill="#6a6aa2" font-size="10">giflib</text>
<text x="849" y="399" fill="#6a6aa2" font-size="10">libtheora</text>
<text x="778" y="430" fill="#6a6aa2" font-size="10">opus</text>
<text x="1534" y="440" fill="#6a6aa2" font-size="10">libtool</text>
<text x="769" y="242" fill="#0000ff" font-size="24">gcc</text>
<text x="1059" y="506" fill="#6a6aa2" font-size="10">libcap</text>
<text x="682" y="558" fill="#0000ff" font-size="10">xorg-xdpyinfo</text>
<text x="788" y="547" fill="#0000ff" font-size="14">network-manager-applet</text>
<text x="494" y="413" fill="#6a6aa2" font-size="10">nettle</text>
<text x="1596" y="555" fill="#6a6aa2" font-size="10">sqlite</text>
<text x="279" y="454" fill="#6a6aa2" font-size="10">gdk-pixbuf2</text>
<text x="990" y="323" fill="#0000ff" font-size="10">autoconf</text>
<text x="1081" y="350" fill="#6a6aa2" font-size="10">keyutils</text>
<text x="855" y="508" fill="#6a6aa2" font-size="10">audit</text>
<text x="301" y="617" fill="#0000ff" font-size="10">thefuck</text>
<text x="574" y="474" fill="#6a6aa2" font-size="10">libxcb</text>
<text x="592" y="511" fill="#6a6aa2" font-size="10">openssl</text>
<text x="1129" y="580" fill="#0000ff" font-size="10">lua51-lpeg</text>
<text x="474" y="476" fill="#0000ff" font-size="10">base</text>
<text x="1101" y="436" fill="#0000ff" font-size="10">rsync</text>
<text x="1517" y="420" fill="#6a6aa2" font-size="10">libxi</text>
<text x="947" y="251" fill="#6a6aa2" font-size="10">device-mapper</text>
<text x="308" y="417" fill="#6a6aa2" font-size="10">xdg-utils</text>
<text x="1187" y="480" fill="#6a6aa2" font-size="10">talloc</text>
<text x="782" y="368" fill="#6a6aa2" font-size="10">libdrm</text>
<text x="1554" y="468" fill="#6a6aa2" font-size="10">libgudev</text>
<text x="633" y="360" fill="#6a6aa2" font-size="10">libvorbis</text>
<text x="397" y="433" fill="#6a6aa2" font-size="10">dbus</text>
<text x="459" y="661" fill="#0000ff" font-size="10">pacgraph</text>
<text x="696" y="508" fill="#6a6aa2" font-size="10">libsoxr</text>
<text x="823" y="435" fill="#6a6aa2" font-size="16">llvm-libs</text>
<text x="874" y="376" fill="#0000ff" font-size="10">dashbinsh</text>
<text x="311" y="549" fill="#6a6aa2" font-size="10">imlib2</text>
<text x="1108" y="321" fill="#0000ff" font-size="10">pyenv</text>
<text x="375" y="413" fill="#6a6aa2" font-size="10">libxrandr</text>
<text x="921" y="487" fill="#6a6aa2" font-size="10">gpm</text>
<text x="821" y="454" fill="#6a6aa2" font-size="10">xz</text>
<text x="545" y="489" fill="#0000ff" font-size="10">xorg-server</text>
<text x="805" y="579" fill="#6a6aa2" font-size="10">libdaemon</text>
<text x="355" y="512" fill="#0000ff" font-size="13">mpv</text>
<text x="1153" y="339" fill="#0000ff" font-size="10">neofetch</text>
<text x="604" y="451" fill="#0000ff" font-size="10">picom</text>
<text x="398" y="563" fill="#6a6aa2" font-size="17">mesa</text>
<text x="500" y="459" fill="#6a6aa2" font-size="11">coreutils</text>
<text x="534" y="642" fill="#6a6aa2" font-size="10">boost-libs</text>
<text x="1487" y="542" fill="#6a6aa2" font-size="10">desktop-file-utils</text>
<text x="673" y="706" fill="#0000ff" font-size="10">pamixer</text>
<text x="1382" y="491" fill="#6a6aa2" font-size="10">libxinerama</text>
<text x="788" y="498" fill="#6a6aa2" font-size="10">bzip2</text>
<text x="491" y="521" fill="#6a6aa2" font-size="12">icu</text>
<text x="914" y="415" fill="#6a6aa2" font-size="10">procps-ng</text>
<text x="1196" y="458" fill="#0000ff" font-size="10">dhcpcd</text>
<text x="1258" y="247" fill="#0000ff" font-size="58">linux-firmware</text>
<text x="379" y="653" fill="#6a6aa2" font-size="15">python</text>
<text x="1295" y="401" fill="#6a6aa2" font-size="10">libgpg-error</text>
<text x="577" y="302" fill="#6a6aa2" font-size="10">zlib</text>
<text x="527" y="338" fill="#6a6aa2" font-size="10">libcdio</text>
<text x="1456" y="607" fill="#6a6aa2" font-size="10">libxkbcommon</text>
<text x="290" y="685" fill="#0000ff" font-size="10">pulsemixer</text>
<text x="1589" y="491" fill="#6a6aa2" font-size="10">libusb</text>
<text x="851" y="316" fill="#6a6aa2" font-size="10">libp11-kit</text>
<text x="657" y="514" fill="#6a6aa2" font-size="10">libxv</text>
<text x="461" y="534" fill="#6a6aa2" font-size="10">libsodium</text>
<text x="346" y="394" fill="#6a6aa2" font-size="10">libidn2</text>
<text x="1157" y="444" fill="#0000ff" font-size="11">lazygit</text>
<text x="664" y="593" fill="#6a6aa2" font-size="10">libjpeg-turbo</text>
<text x="684" y="395" fill="#6a6aa2" font-size="10">zstd</text>
<text x="888" y="457" fill="#6a6aa2" font-size="10">e2fsprogs</text>
<text x="553" y="351" fill="#6a6aa2" font-size="10">speex</text>
<text x="1173" y="433" fill="#0000ff" font-size="10">wireless_tools</text>
<text x="508" y="556" fill="#0000ff" font-size="16">keepassxc</text>
<text x="1516" y="462" fill="#6a6aa2" font-size="10">tdb</text>
<text x="779" y="531" fill="#6a6aa2" font-size="10">fontconfig</text>
<text x="715" y="342" fill="#0000ff" font-size="10">xorg-xinit</text>
<text x="792" y="628" fill="#6a6aa2" font-size="10">libssh2</text>
<text x="1071" y="473" fill="#0000ff" font-size="15">clion-cmake</text>
<text x="1103" y="413" fill="#6a6aa2" font-size="13">glibc</text>
<text x="1157" y="262" fill="#0000ff" font-size="10">efibootmgr</text>
<text x="783" y="509" fill="#6a6aa2" font-size="10">pcre2</text>
<text x="475" y="631" fill="#6a6aa2" font-size="10">libglvnd</text>
<text x="689" y="481" fill="#6a6aa2" font-size="18">ffmpeg</text>
<text x="777" y="453" fill="#0000ff" font-size="10">lvm2</text>
<text x="1036" y="403" fill="#6a6aa2" font-size="10">lmdb</text>
<text x="620" y="494" fill="#0000ff" font-size="10">xorg-xsetroot</text>
<text x="878" y="584" fill="#0000ff" font-size="11">mpd</text>
<text x="662" y="444" fill="#6a6aa2" font-size="20">gcc-libs</text>
<text x="211" y="582" fill="#6a6aa2" font-size="10">util-linux-libs</text>
<text x="1144" y="275" fill="#6a6aa2" font-size="10">libuv</text>
<text x="1041" y="457" fill="#6a6aa2" font-size="10">tar</text>
<text x="1120" y="507" fill="#6a6aa2" font-size="10">gzip</text>
<text x="1094" y="311" fill="#6a6aa2" font-size="10">speexdsp</text>
<text x="0" y="46" fill="#0000ff" font-size="55">6231MB</text></g></svg>